<svg width="71" height="33" viewBox="0 0 71 33" fill="none" xmlns="http://www.w3.org/2000/svg">
<path d="M33 16.5C33 25.6127 25.6127 33 16.5 33C7.38731 33 0 25.6127 0 16.5C0 7.38731 7.38731 0 16.5 0C25.6127 0 33 7.38731 33 16.5Z" fill="#635959"/>
<path fill-rule="evenodd" clip-rule="evenodd" d="M53.6251 29.5059C60.8081 29.5059 66.631 23.683 66.631 16.5C66.631 9.31706 60.8081 3.49412 53.6251 3.49412C46.4422 3.49412 40.6192 9.31706 40.6192 16.5C40.6192 23.683 46.4422 29.5059 53.6251 29.5059ZM53.6251 33C62.7378 33 70.1251 25.6127 70.1251 16.5C70.1251 7.38731 62.7378 0 53.6251 0C44.5124 0 37.1251 7.38731 37.1251 16.5C37.1251 25.6127 44.5124 33 53.6251 33Z" fill="#635959"/>
</svg>
