<svg width="39" height="39" viewBox="0 0 39 39" fill="none" xmlns="http://www.w3.org/2000/svg">
<path fill-rule="evenodd" clip-rule="evenodd" d="M19.5 1.21875C9.17516 1.21875 0.8125 9.5814 0.8125 19.9062C0.8125 28.1755 6.1618 35.1599 13.5901 37.636C14.5245 37.7995 14.8748 37.2389 14.8748 36.7484C14.8748 36.3045 14.8515 34.8329 14.8515 33.2678C10.1563 34.1321 8.94156 32.1232 8.56781 31.072C8.35758 30.5348 7.44656 28.8762 6.65234 28.4324C5.99828 28.082 5.06391 27.2177 6.62898 27.1944C8.10063 27.171 9.1518 28.5492 9.50219 29.1098C11.1841 31.9363 13.8704 31.1421 14.9449 30.6516C15.1084 29.4369 15.599 28.6193 16.1363 28.1521C11.9783 27.6849 7.63344 26.0731 7.63344 18.9252C7.63344 16.8929 8.35758 15.211 9.54891 13.9029C9.36203 13.4357 8.70797 11.5202 9.73578 8.9507C9.73578 8.9507 11.3009 8.46016 14.8748 10.8662C16.3698 10.4457 17.9583 10.2355 19.5467 10.2355C21.1352 10.2355 22.7236 10.4457 24.2186 10.8662C27.7926 8.4368 29.3577 8.9507 29.3577 8.9507C30.3855 11.5202 29.7314 13.4357 29.5445 13.9029C30.7359 15.211 31.46 16.8695 31.46 18.9252C31.46 26.0965 27.0918 27.6849 22.9338 28.1521C23.6113 28.7361 24.1952 29.8573 24.1952 31.6093C24.1952 34.1087 24.1719 36.1177 24.1719 36.7484C24.1719 37.2389 24.5223 37.8229 25.4566 37.636C32.8382 35.1599 38.1875 28.1521 38.1875 19.9062C38.1875 9.5814 29.8248 1.21875 19.5 1.21875Z" fill="#635959"/>
</svg>
